<?xml version="1.0" standalone="no"?> <!DOCTYPE svg PUBLIC "-//W3C//DTD SVG 1.0//EN" "http://www.w3.org/TR/2001/REC-SVG-20010904/DTD/svg10.dtd" > <svg xmlns="http://www.w3.org/2000/svg" width="100%" height="100%">
<defs >
<font id="GlyphaLTStd" horiz-adv-x="476" ><font-face
    font-family="Glypha LT Std"
    units-per-em="1000"
    panose-1="2 6 5 3 3 5 5 2 2 4"
    ascent="960"
    descent="-207"
    alphabetic="0" />
<missing-glyph horiz-adv-x="500" d="M0 0V700H500V0H0ZM250 395L420 650H80L250 395ZM280 350L450 95V605L280 350ZM80 50H420L250 305L80 50ZM50 605V95L220 350L50 605Z" />
<glyph unicode=" " glyph-name="space" horiz-adv-x="278" />
<glyph unicode="!" glyph-name="exclam" horiz-adv-x="389" d="M164 168L142 716H245L228 168H164ZM148 0V93H243V0H148Z" />
<glyph unicode="&quot;" glyph-name="quotedbl" horiz-adv-x="280" d="M231 439H180L168 716H243L231 439ZM99 439H48L36 716H111L99 439Z" />
<glyph unicode="#" glyph-name="numbersign" horiz-adv-x="556" d="M376 261L340 0H293L329 261H207L171 0H124L159 261H17V307H168L183 424H44V471H191L225 716H272L239 471H360L395 716H441L408 471H539V424H399L385 307H514V261H376ZM352 424H231L216 307H337L352
424Z" />
<glyph unicode="$" glyph-name="dollar" horiz-adv-x="556" d="M306 312V54Q359 56 392 91Q424 128 424 180T393 261T306 312ZM259 416V663Q199 661 166 631T132 541Q132 493 165 466T253 418L259 416ZM259 725V823H306V721Q396 704 422 647V714H493V517H424Q424
529 422 534Q410 639 306 659V398L344 384Q426 354 467 314T508 196Q508 99 444 42Q386 -11 306 -11V-114H259V-8Q179 5 131 67Q127 71 125 78V0H53V204H124Q125 147 163 108T259 57V329Q164 361 119 392Q46 441 46 539Q46 624 108 674T259 725Z" />
<glyph unicode="%" glyph-name="percent" horiz-adv-x="889" d="M270 676Q195 676 195 541Q195 495 212 461T271 426Q308 426 324 466T341 549Q341 676 270 676ZM679 729L270 -12H209L620 729H679ZM624 291Q550 291 550 155Q550 41 625 41Q644 41 659 54T681 87T692
126T696 164Q696 291 624 291ZM478 170Q478 242 516 292T625 343Q698 343 731 293T765 165Q765 92 730 40T625 -12Q549 -12 514 39T478 170ZM124 555Q124 627 162 678T271 729Q343 729 377 678T411 550Q411 475 374 424T265 372Q194 372 159 426T124 555Z" />
<glyph unicode="&amp;" glyph-name="ampersand" horiz-adv-x="778" d="M332 388L502 192Q535 264 542 358H464V422H708V358H618Q602 240 578 185Q575 179 567 162T553 137L616 66H723V0H560L498 72Q460 29 403 6T287 -18Q182 -18 120 38T57 198Q57 267 97 323T203
406Q113 492 113 573Q113 607 128 641T168 695Q216 731 294 731Q377 731 419 693Q468 647 468 579Q468 462 332 388ZM451 127L256 350Q148 291 148 196Q148 134 191 88Q225 50 285 50Q330 50 376 71T451 127ZM285 439Q325 461 354 498T384 576Q384 620 360 644T293
669Q253 669 228 644T203 578Q203 562 207 547T223 515T240 490T264 462T285 439Z" />
<glyph unicode="&apos;" glyph-name="quotesingle" horiz-adv-x="140" d="M95 439H44L32 716H107L95 439Z" />
<glyph unicode="(" glyph-name="parenleft" horiz-adv-x="333" d="M203 731H278Q141 534 141 263Q141 166 170 49T248 -143Q268 -175 279 -190H203Q56 22 56 269Q56 514 203 731Z" />
<glyph unicode=")" glyph-name="parenright" horiz-adv-x="333" d="M120 -190H45Q182 7 182 277Q182 390 147 514T50 723Q49 724 44 731H120Q267 517 267 271Q267 27 120 -190Z" />
<glyph unicode="*" glyph-name="asterisk" horiz-adv-x="444" d="M203 573L183 716H263L245 573L363 632L385 556L255 532L344 424L279 380L223 508L161 380L97 429L190 532L61 560L87 637L203 573Z" />
<glyph unicode="+" glyph-name="plus" horiz-adv-x="660" d="M71 388H294V611H356V388H579V327H356V104H294V327H71V388Z" />
<glyph unicode="," glyph-name="comma" horiz-adv-x="278" d="M84 0V101H186V0L142 -141H84L131 0H84Z" />
<glyph unicode="-" glyph-name="hyphen" horiz-adv-x="333" d="M49 240V313H285V240H49Z" />
<glyph unicode="." glyph-name="period" horiz-adv-x="278" d="M87 0V101H189V0H87Z" />
<glyph unicode="/" glyph-name="slash" horiz-adv-x="352" d="M286 731H356L72 0H1L286 731Z" />
<glyph unicode="0" glyph-name="zero" horiz-adv-x="556" d="M274 -12Q150 -12 86 121Q48 203 48 340Q48 347 48 361T49 384Q55 537 97 617Q123 669 172 699T280 729Q327 729 364 713T426 669T467 606T492 528T504 447T508 367Q508 -12 274 -12ZM140 343Q140 55
279 55Q308 55 331 69T367 101T390 150T404 201T413 254Q418 288 418 334Q418 436 410 486Q395 567 377 600Q339 664 283 664Q254 664 231 651T193 618T168 568T152 511T144 449T141 392T140 343Z" />
<glyph unicode="1" glyph-name="one" horiz-adv-x="556" d="M104 488V579Q114 587 143 610T186 646T221 678T259 716H350V66H451V0H155V66H263V628L250 613Q181 538 104 488Z" />
<glyph unicode="2" glyph-name="two" horiz-adv-x="556" d="M492 184V0H49V94Q49 97 49 100Q49 107 54 112Q55 113 56 114Q72 130 80 137L197 252L262 318Q282 339 318 383Q348 417 363 441Q389 481 389 531Q389 589 358 624T270 660Q210 660 177 617T146 512H54Q56
537 66 587Q73 619 95 650T146 698Q199 729 270 729Q319 729 354 720T421 682Q449 658 465 622T481 549Q481 485 459 442T386 340L325 274Q270 214 211 157L175 124L118 69H413V184H492Z" />
<glyph unicode="3" glyph-name="three" horiz-adv-x="556" d="M53 200H146Q147 141 178 100T266 58Q329 58 366 95T403 196Q403 267 353 303Q318 330 241 332V399Q311 397 354 430T397 532Q397 588 364 624T275 661Q221 661 191 630Q158 595 153 554Q152 545 152
526H60Q61 620 122 674T280 729Q327 729 360 718Q420 697 453 650T486 540Q486 467 448 422T337 364Q410 357 451 311T492 190Q492 93 431 41T271 -12Q169 -12 111 43T53 200Z" />
<glyph unicode="4" glyph-name="four" horiz-adv-x="556" d="M332 191H28V287L308 716H414V256H514V191H414V66H505V0H223V66H332V191ZM90 256H332V635L90 256Z" />
<glyph unicode="5" glyph-name="five" horiz-adv-x="556" d="M72 190H161Q158 138 193 97T280 56Q348 56 383 102T419 219Q419 297 391 337Q353 390 289 390Q246 390 210 364T161 294H76L90 716H477V646H170L157 369Q174 413 214 435T306 457Q404 457 458 386Q506
324 506 228Q506 76 396 13Q377 2 343 -5T284 -12Q187 -12 129 41T72 190Z" />
<glyph unicode="6" glyph-name="six" horiz-adv-x="556" d="M492 546H405Q402 596 380 629T309 663Q265 663 233 640T183 577T157 500T146 418Q144 364 144 338Q160 389 207 422T309 455Q406 455 454 390T502 224Q502 119 445 54T284 -12Q58 -12 58 337Q58 729
307 729Q394 729 441 681T492 546ZM297 388Q230 388 193 339T156 219Q156 152 190 103T288 53Q353 53 384 105T416 226Q416 289 386 338T297 388Z" />
<glyph unicode="7" glyph-name="seven" horiz-adv-x="556" d="M56 520V716H513V639L448 498Q341 266 260 0H166L222 162Q236 202 253 247T284 323T322 409T356 483T396 568T433 645H137V520H56Z" />
<glyph unicode="8" glyph-name="eight" horiz-adv-x="556" d="M348 370Q366 368 402 354Q449 338 474 293T499 192Q499 97 439 43T281 -12Q178 -12 118 39T57 192Q57 217 71 267Q83 308 122 335T208 369Q144 378 106 424T67 535Q67 628 125 678T278 729T431 682T491
543Q491 396 348 370ZM277 666Q218 666 180 622Q151 589 151 527Q151 472 187 436T279 399Q335 399 370 438T406 535Q406 596 372 631T277 666ZM145 261T145 199T178 95T272 53Q340 53 375 92T411 201Q411 264 376 302T277 340Q216 340 181 301Z" />
<glyph unicode="9" glyph-name="nine" horiz-adv-x="556" d="M65 170H152Q154 118 179 86T255 54Q306 54 340 88T389 179T409 282T413 378Q396 327 349 294T248 261Q152 261 103 326T54 492Q54 597 110 663T270 729Q343 729 388 698T464 599Q499 520 499 379Q499
-12 250 -12Q163 -12 116 36T65 170ZM265 328Q295 328 323 343T369 384Q400 428 400 491Q400 570 370 609Q330 663 275 663Q207 663 174 613T141 491Q141 425 171 377T265 328Z" />
<glyph unicode=":" glyph-name="colon" horiz-adv-x="389" d="M244 501V400H142V501H244ZM142 0V101H244V0H142Z" />
<glyph unicode=";" glyph-name="semicolon" horiz-adv-x="389" d="M140 0V101H242V0L199 -141H140L186 0H140ZM140 400V501H242V400H140Z" />
<glyph unicode="&lt;" glyph-name="less" horiz-adv-x="660" d="M595 146V83L55 329V387L595 635V572L125 357L595 146Z" />
<glyph unicode="=" glyph-name="equal" horiz-adv-x="660" d="M76 463H584V401H76V463ZM76 313H584V252H76V313Z" />
<glyph unicode="&gt;" glyph-name="greater" horiz-adv-x="660" d="M55 146L525 357L55 572V635L595 387V329L55 83V146Z" />
<glyph unicode="?" glyph-name="question" horiz-adv-x="500" d="M265 165H177Q177 198 182 236Q187 272 193 287T220 333Q229 347 268 384T312 425Q359 475 359 540Q359 592 329 626T247 660Q192 660 162 625T130 533H39Q42 631 98 679T253 727Q340 727 395 676T450
537Q450 436 356 357Q333 337 316 319Q291 292 282 274T267 220Q265 207 265 165ZM174 93H267V0H174V93Z" />
<glyph unicode="@" glyph-name="at" horiz-adv-x="900" d="M762 150L781 121Q727 54 648 20T476 -14Q401 -14 325 12T193 85Q135 135 104 207T72 357Q72 513 191 623T473 733Q615 733 717 647T820 426Q820 321 766 251Q736 212 691 186T599 160Q540 160 537 220Q481
155 397 155Q330 155 288 205T246 322Q246 416 315 492T480 569Q521 569 554 548T599 490L615 539H662L587 283Q576 248 576 232Q576 198 613 198Q641 198 672 217T724 260Q781 322 781 424Q781 536 694 615Q604 695 470 695Q329 695 223 600Q115 501 115 357Q115
210 218 117T476 24Q558 24 635 57T762 150ZM408 199Q458 199 498 233Q526 258 546 311Q577 401 577 439Q577 479 549 503T479 527Q402 527 349 461T295 319Q295 268 325 234T408 199Z" />
<glyph unicode="A" glyph-name="A" horiz-adv-x="778" d="M263 304H503L384 638L263 304ZM84 66L337 716H439L688 66H760V0H494V66H593L531 238H235L174 66H272V0H10V66H84Z" />
<glyph unicode="B" glyph-name="B" horiz-adv-x="667" d="M363 0H29V66H130V650H30V716H364Q400 716 421 715T470 704T521 678Q550 655 565 617T580 538Q580 473 544 428T444 375Q516 370 557 322T598 201Q598 99 523 42Q489 16 453 8T363 0ZM217 399H322Q407
399 442 425Q492 462 492 534Q492 608 443 634Q414 650 331 650H217V399ZM346 334H217V66H335Q420 66 459 99Q508 140 508 205Q508 237 496 268T460 314Q454 318 448 320T435 325T424 328T411 331T399 332T385 333T373 334T359 334T346 334Z" />
<glyph unicode="C" glyph-name="C" horiz-adv-x="722" d="M660 462H582Q577 552 528 604T390 657Q327 657 281 634T208 569T169 477T156 366Q156 318 162 276T185 193T226 124T291 78T384 60Q467 60 516 109T571 241H663Q659 121 582 55T383 -12Q222 -12 135 97Q97
145 78 216T59 358Q59 516 133 612Q222 727 380 727Q537 727 588 612V716H660V462Z" />
<glyph unicode="D" glyph-name="D" horiz-adv-x="722" d="M311 650H213V66H289Q363 66 414 80T508 137Q544 174 562 231T580 347Q580 416 563 474T502 581T391 642Q349 650 311 650ZM281 0H25V66H126V650H25V716H303Q382 716 424 708Q551 684 614 580Q670 487
670 363Q670 214 605 122Q566 68 516 41T394 4Q360 0 281 0Z" />
<glyph unicode="E" glyph-name="E" horiz-adv-x="667" d="M601 0H29V66H131V650H29V716H601V502H523V650H218V397H366V506H438V224H366V331H218V66H523V223H601V0Z" />
<glyph unicode="F" glyph-name="F" horiz-adv-x="611" d="M328 0H21V66H122V650H21V716H571V499H495V650H209V384H352V489H422V210H352V318H209V66H328V0Z" />
<glyph unicode="G" glyph-name="G" horiz-adv-x="778" d="M654 462H575Q574 551 520 604T376 658Q315 658 270 631T201 558T166 461T154 352Q154 296 166 246T202 153T271 84T376 58Q469 58 526 126T581 289H471V354H752V289H662V0H580V110Q558 49 496 19T363
-12Q213 -12 120 110Q91 148 75 218T58 352Q58 529 138 624Q225 727 377 727Q440 727 493 701T575 624V716H654V462Z" />
<glyph unicode="H" glyph-name="H" horiz-adv-x="778" d="M318 0H31V66H131V650H31V716H318V650H218V397H560V650H459V716H747V650H647V66H747V0H459V66H560V326H218V66H318V0Z" />
<glyph unicode="I" glyph-name="I" horiz-adv-x="333" d="M23 650V716H311V650H210V66H311V0H23V66H123V650H23Z" />
<glyph unicode="J" glyph-name="J" horiz-adv-x="500" d="M20 213V221H112Q108 58 218 58Q281 58 307 123Q319 154 319 240V650H214V716H485V650H406V247Q406 156 399 123Q382 53 326 17Q306 5 272 -3T211 -11Q107 -11 58 53Q20 103 20 213Z" />
<glyph unicode="K" glyph-name="K" horiz-adv-x="667" d="M317 0H30V66H132V650H30V716H317V650H219V381H220L477 650H390V716H638V650H588L324 380L593 66H660V0H396V66H483L220 379H219V66H317V0Z" />
<glyph unicode="L" glyph-name="L" horiz-adv-x="611" d="M572 0H29V66H132V650H29V716H339V650H219V72H491V234H572V0Z" />
<glyph unicode="M" glyph-name="M" horiz-adv-x="944" d="M302 0H30V66H133V650H30V716H285L470 104L661 716H913V650H811V66H913V0H635V66H727V650H720L507 0H429L216 650H209V66H302V0Z" />
<glyph unicode="N" glyph-name="N" horiz-adv-x="778" d="M309 0H29V66H130V650H29V716H259L575 93V650H475V716H751V650H653V0H532L206 641V66H309V0Z" />
<glyph unicode="O" glyph-name="O" horiz-adv-x="778" d="M396 -12Q237 -12 147 88T57 348Q57 518 141 620Q228 727 393 727Q554 727 644 616Q721 522 721 353Q721 276 701 212Q675 135 641 92Q556 -12 396 -12ZM390 662Q327 662 280 636T206 566T166 470T153
359Q153 217 205 148Q274 53 395 53Q512 53 578 154Q627 232 627 357Q627 416 615 468T576 565T502 636T390 662Z" />
<glyph unicode="P" glyph-name="P" horiz-adv-x="611" d="M316 650H218V360H326Q355 360 371 361T409 370T448 394Q486 431 486 503Q486 589 438 622Q421 635 398 641T360 649T316 650ZM338 0H29V66H131V650H29V716H344Q404 716 438 708Q507 691 541 636T575 504Q575
398 504 335Q481 315 448 305T398 295T334 294H218V66H338V0Z" />
<glyph unicode="Q" glyph-name="Q" horiz-adv-x="778" d="M674 64H755V-3H499Q478 -3 436 -7Q401 -12 372 -12Q206 -12 115 100Q76 149 56 218T35 357Q35 512 126 619T372 727Q530 727 620 614Q699 512 699 360Q699 304 685 245T635 130T552 54Q600 62 609 62Q653
64 674 64ZM369 657Q308 657 261 630T186 558T145 459T131 348Q131 304 146 246Q169 153 237 97Q286 56 368 56Q416 56 455 74T522 123T567 193T594 276T603 363Q603 483 544 570T369 657Z" />
<glyph unicode="R" glyph-name="R" horiz-adv-x="667" d="M334 650H211V382H306Q403 382 438 409Q484 444 484 520Q484 592 442 627Q414 650 334 650ZM308 0H22V66H124V650H22V716H322Q366 716 385 716T440 708T499 686Q534 662 553 621T572 533Q572 454 535 402T421
344Q477 331 495 309T530 226L575 66H652V0H505L445 211Q424 285 385 304Q362 315 309 315H211V66H308V0Z" />
<glyph unicode="S" glyph-name="S" horiz-adv-x="556" d="M497 482H420Q418 569 383 615T266 662Q211 662 175 630T138 543Q138 495 174 462Q186 451 253 425L344 390Q372 380 380 377T408 364T441 346T467 322Q513 273 513 193Q513 137 488 91Q432 -12 294 -12Q235
-12 189 13T123 91V0H47V242H123Q125 159 165 108T286 56Q353 56 388 92Q422 129 422 184Q422 235 398 259T319 305L204 350Q123 382 85 419T46 532Q46 606 80 648Q116 692 157 709T259 727Q375 727 420 648V716H497V482Z" />
<glyph unicode="T" glyph-name="T" horiz-adv-x="667" d="M38 487V716H618V487H538V640H372V66H483V0H175V66H285V640H118V487H38Z" />
<glyph unicode="U" glyph-name="U" horiz-adv-x="722" d="M14 716H297V650H190V276Q190 169 229 118Q273 60 362 60Q408 60 448 81T510 141Q524 166 530 196T538 246T539 304V650H434V716H705V650H616V283Q616 182 593 131Q578 100 550 68T493 21Q431 -11 357
-11Q299 -11 245 11T156 77Q121 118 112 163T102 277V650H14V716Z" />
<glyph unicode="V" glyph-name="V" horiz-adv-x="722" d="M648 650L407 0H308L72 650H14V716H272V650H167L361 89L559 650H455V716H706V650H648Z" />
<glyph unicode="W" glyph-name="W" horiz-adv-x="1000" d="M14 650V716H263V650H160L280 86L442 716H567L722 81L846 650H743V716H985V650H928L778 0H661L502 652H495L336 0H218L72 650H14Z" />
<glyph unicode="X" glyph-name="X" horiz-adv-x="722" d="M296 0H16V66H87L311 375L116 650H41V716H319V650H225L372 442L521 650H427V716H697V650H622L428 380L647 66H714V0H432V66H537L366 311L186 66H296V0Z" />
<glyph unicode="Y" glyph-name="Y" horiz-adv-x="667" d="M486 0H177V66H288V293L67 650H12V716H266V650H167L337 370L506 650H412V716H656V650H600L375 293V66H486V0Z" />
<glyph unicode="Z" glyph-name="Z" horiz-adv-x="611" d="M569 0H38V91L462 648H125V504H45V716H561V633L132 69H492V219H569V0Z" />
<glyph unicode="[" glyph-name="bracketleft" horiz-adv-x="333" d="M252 -190H100V731H252V675H176V-134H252V-190Z" />
<glyph unicode="\" glyph-name="backslash" horiz-adv-x="580" d="M381 0L81 731H150L448 0H381Z" />
<glyph unicode="]" glyph-name="bracketright" horiz-adv-x="333" d="M229 731V-190H76V-134H153V675H76V731H229Z" />
<glyph unicode="^" glyph-name="asciicircum" horiz-adv-x="660" d="M116 176H55L301 716H357L605 176H543L328 644L116 176Z" />
<glyph unicode="_" glyph-name="underscore" horiz-adv-x="500" d="M500 -112H0V-49H500V-112Z" />
<glyph unicode="`" glyph-name="grave" horiz-adv-x="278" d="M150 600L13 738H90L201 600H150Z" />
<glyph unicode="a" glyph-name="a" horiz-adv-x="556" d="M383 0V103Q357 45 317 19T212 -7Q152 -7 108 20T50 103Q45 124 45 152Q45 234 101 274T244 314Q254 314 273 314T301 315H383V363Q380 394 374 412T348 450Q320 478 271 478Q234 478 211 470T167 436Q151
417 147 374H63Q69 491 176 527Q208 538 265 538Q351 538 408 493Q458 454 458 363V63H541V0H383ZM131 150Q131 106 155 79T222 52Q305 52 342 109T383 253Q358 257 303 257Q273 257 254 256T209 249T168 233T142 201T131 150Z" />
<glyph unicode="b" glyph-name="b" horiz-adv-x="611" d="M185 716V431Q208 479 255 508T355 538Q465 538 520 462T575 271Q575 218 568 179T535 91Q511 46 460 20T347 -7Q295 -7 251 19T186 91L185 103V0H21V63H104V657H22V716H185ZM336 57Q413 57 452 115T491
255Q491 310 479 356T430 439T338 475T236 429Q205 398 189 338Q182 311 182 267Q182 177 214 121Q250 57 336 57Z" />
<glyph unicode="c" glyph-name="c" horiz-adv-x="500" d="M472 330H409Q409 387 373 429T281 472Q203 472 165 412T126 270Q126 186 163 125Q204 58 280 58Q329 58 363 92T402 177H478Q477 93 417 43T272 -7Q163 -7 100 68T37 256Q37 376 97 457Q125 494 168 516T260
538Q359 538 409 457V522H472V330Z" />
<glyph unicode="d" glyph-name="d" horiz-adv-x="611" d="M432 0V104Q412 50 367 22T260 -7Q206 -7 158 21T78 104Q44 164 44 270Q44 383 99 460T262 538Q373 538 427 447Q428 445 430 442T432 437V657H346V716H513V63H597V0H432ZM282 54Q321 54 354 74T406 128Q432
179 432 268Q432 349 398 411T289 476Q247 476 218 460T164 409Q129 358 129 278Q129 216 140 176Q175 54 282 54Z" />
<glyph unicode="e" glyph-name="e" horiz-adv-x="556" d="M520 259V245H135Q140 153 181 105Q206 75 233 65T305 54Q353 54 392 85T436 163H513Q499 81 439 37T291 -7Q169 -7 110 65T51 262Q51 358 90 426Q119 478 174 508T293 538Q378 538 435 492Q493 444 509
363Q520 311 520 259ZM139 305H434Q433 374 396 426T291 478Q223 478 184 427T139 305Z" />
<glyph unicode="f" glyph-name="f" horiz-adv-x="333" d="M289 0H21V63H109V462H17V522H109V549Q109 621 119 647Q128 671 148 690Q190 731 271 731Q312 731 353 722V654Q303 662 279 662Q223 662 203 630Q190 609 190 541V522H301V462H190V63H289V0Z" />
<glyph unicode="g" glyph-name="g" horiz-adv-x="611" d="M67 -51H157Q172 -131 284 -131Q323 -131 358 -116T411 -71Q432 -34 434 60V92Q399 38 359 16T257 -7Q152 -7 95 70T37 257Q37 372 76 439Q104 487 155 512T258 538Q383 538 435 439V522H601V463H515V51Q515
-15 504 -56T454 -137Q425 -164 378 -178T285 -192Q84 -192 67 -51ZM274 55Q349 55 398 122Q434 169 434 252Q434 302 427 335T398 403Q379 433 347 451T281 469Q225 469 189 437T138 359T124 259Q124 172 161 118Q206 55 274 55Z" />
<glyph unicode="h" glyph-name="h" horiz-adv-x="611" d="M280 0H29V63H113V657H29V716H194V453Q256 538 356 538Q442 538 485 485Q507 459 513 430T519 357V63H605V0H352V63H438V331Q438 359 437 371T432 407T416 445T383 469Q362 478 339 478Q296 478 265 460Q221
434 208 393T194 289V63H280V0Z" />
<glyph unicode="i" glyph-name="i" horiz-adv-x="296" d="M280 63V0H34V63H118V463H35V522H199V63H280ZM112 716H205V632H112V716Z" />
<glyph unicode="j" glyph-name="j" horiz-adv-x="278" d="M0 -168V-103Q12 -105 17 -107Q37 -111 63 -108T102 -86Q113 -65 113 -3V463H27V522H194V4Q194 -95 176 -127Q162 -151 131 -163T68 -175Q26 -175 0 -168ZM200 632H108V716H200V632Z" />
<glyph unicode="k" glyph-name="k" horiz-adv-x="556" d="M263 0H25V63H109V657H25V716H190V265L377 463H301V522H535V463H465L340 331L490 63H544V0H333V63H397L281 280L190 189V63H263V0Z" />
<glyph unicode="l" glyph-name="l" horiz-adv-x="278" d="M265 0H21V63H104V657H21V716H185V63H265V0Z" />
<glyph unicode="m" glyph-name="m" horiz-adv-x="889" d="M196 522V428Q208 478 248 508T342 538Q401 538 438 509T491 428Q501 477 543 507T638 538Q699 538 742 508T795 428Q802 391 802 346V63H878V0H639V63H721V324Q721 353 721 368T715 407T700 443T670 465T621
475Q548 475 514 402Q499 367 499 282V63H580V0H337V63H418V324Q418 353 418 368T412 407T397 443T367 465T318 475Q246 475 212 402Q196 367 196 282V63H278V0H30V63H115V463H30V522H196Z" />
<glyph unicode="n" glyph-name="n" horiz-adv-x="611" d="M193 522V428Q213 485 251 511T351 538Q473 538 509 428Q513 405 513 361V63H595V0H350V63H432V333Q432 475 329 475Q286 475 258 457Q232 440 214 406Q193 365 193 272V63H275V0H25V63H112V463H27V522H193Z" />
<glyph unicode="o" glyph-name="o" horiz-adv-x="556" d="M123 267Q123 169 159 121Q206 54 280 54Q317 54 352 76T405 133Q434 187 434 270Q434 356 398 416T280 476Q199 476 152 402Q123 352 123 267ZM37 268Q37 390 102 462Q171 538 285 538Q402 538 462 461T522
264Q522 148 459 71T281 -7Q156 -7 94 81Q37 162 37 268Z" />
<glyph unicode="p" glyph-name="p" horiz-adv-x="611" d="M185 522V420Q215 481 257 509T366 538Q430 538 470 511T547 420Q575 371 575 267Q575 144 527 81Q460 -7 365 -7Q237 -7 185 97V-102H269V-162H20V-102H104V463H22V522H185ZM344 477Q259 477 216 403Q185
352 185 267Q185 175 218 122Q261 53 337 53Q390 53 426 85T477 161T492 258Q492 352 458 410Q441 441 410 459T344 477Z" />
<glyph unicode="q" glyph-name="q" horiz-adv-x="611" d="M427 -102V98Q408 65 399 56Q369 19 335 6T248 -7Q230 -7 195 0Q161 6 125 38T71 105Q37 169 37 267T68 426Q126 538 249 538Q380 538 427 426V522H590V463H508V-102H593V-162H344V-102H427ZM275 477Q219
477 183 444T133 365T120 264Q120 176 159 115T282 53Q316 53 349 76T400 131Q427 181 427 273Q427 308 420 343Q409 398 369 437T275 477Z" />
<glyph unicode="r" glyph-name="r" horiz-adv-x="389" d="M195 522V418Q219 485 250 508T353 531H374V456Q352 460 340 460Q195 460 195 262V63H294V0H31V63H114V463H31V522H195Z" />
<glyph unicode="s" glyph-name="s" horiz-adv-x="500" d="M438 354H375Q372 400 357 427T302 468Q275 477 251 477Q203 477 172 454T140 384Q140 352 161 337Q168 332 176 329T191 323T208 318T224 314T242 311T259 308Q302 301 328 294T385 270T429 226T444 158Q444
104 430 83Q371 -7 273 -7Q212 -7 178 12T115 83V0H52V180H115Q125 111 163 83Q202 54 254 54Q299 54 329 79T360 149Q360 165 356 177T343 197T326 211T302 221T278 227T251 231T226 235Q188 241 162 249T110 273T72 316T59 381Q59 445 82 470Q144 538 241 538Q335
538 375 470V522H438V354Z" />
<glyph unicode="t" glyph-name="t" horiz-adv-x="370" d="M178 654V522H328V463H178V125Q178 53 230 53Q248 53 259 63T275 94T281 127T282 160H347Q347 135 346 122Q342 30 277 2Q236 -7 223 -7T174 -1Q128 7 106 63Q97 85 97 157V463H7V522H97V624L178 654Z" />
<glyph unicode="u" glyph-name="u" horiz-adv-x="611" d="M419 0V100Q400 43 365 18T266 -7Q207 -7 165 19T109 100Q102 128 102 202V463H20V522H183V202Q183 171 186 149T199 102T230 66T284 53Q321 53 351 72T398 126Q419 169 419 252V463H331V522H500V63H583V0H419Z" />
<glyph unicode="v" glyph-name="v" horiz-adv-x="556" d="M15 463V522H237V463H154L276 69H283L407 463H324V522H541V463H488L330 0H227L67 463H15Z" />
<glyph unicode="w" glyph-name="w" horiz-adv-x="889" d="M15 463V522H248V463H161L261 74H268L391 522H505L630 74H637L735 463H648V522H875V463H816L682 0H575L450 457H443L316 0H209L74 463H15Z" />
<glyph unicode="x" glyph-name="x" horiz-adv-x="556" d="M27 463V522H249V463H176L289 314L404 463H325V522H538V463H487L334 263L492 63H544V0H316V63H397L277 215L153 63H240V0H17V63H67L233 271L79 463H27Z" />
<glyph unicode="y" glyph-name="y" horiz-adv-x="556" d="M17 522H240V463H159L287 97L411 463H329V522H543V463H497L325 -5Q307 -51 293 -82Q270 -134 239 -152Q204 -174 159 -174Q145 -174 96 -167V-101Q124 -108 156 -108Q175 -108 189 -99T215 -69T230 -37T242
-1L67 463H17V522Z" />
<glyph unicode="z" glyph-name="z" horiz-adv-x="500" d="M451 0H49V68L354 463H127V356H56V522H447V455L141 63H381V179H451V0Z" />
<glyph unicode="{" glyph-name="braceleft" horiz-adv-x="300" d="M182 136V-67Q182 -119 198 -147T260 -190Q188 -192 152 -163Q115 -133 115 -47V155Q115 176 114 186T109 211T94 238Q72 265 36 274Q63 278 87 298Q101 310 107 327T114 355T115 392V571Q115
664 145 699T260 731Q217 718 200 689T182 609V420Q182 356 165 322T95 274Q146 261 164 229T182 136Z" />
<glyph unicode="|" glyph-name="bar" horiz-adv-x="660" d="M294 0V731H356V0H294Z" />
<glyph unicode="}" glyph-name="braceright" horiz-adv-x="300" d="M114 419V609Q114 660 97 688T37 731Q121 735 151 699T181 570V391Q181 366 182 355T189 327T210 297Q233 278 260 273Q224 265 202 237Q192 224 187 210T182 186T181 155V-47Q181 -88 175 -116T145
-162Q129 -175 110 -181T77 -189T37 -190Q81 -175 97 -147T114 -67V136Q114 196 132 228T201 273Q149 286 132 321T114 419Z" />
<glyph unicode="~" glyph-name="asciitilde" horiz-adv-x="660" d="M555 428L602 398Q578 365 563 347T519 313T457 296T358 320L305 340Q236 366 211 366Q175 366 152 346T104 286L57 316Q91 369 126 397T213 425Q256 425 340 390Q431 355 455 355Q478 355 498
367T528 391T555 428Z" />
<glyph unicode="&#xa0;" glyph-name="uni00A0" horiz-adv-x="278" />
<glyph unicode="&#xa1;" glyph-name="exclamdown" horiz-adv-x="389" d="M225 370L247 -175H144L161 370H225ZM241 538V445H146V538H241Z" />
<glyph unicode="&#xa2;" glyph-name="cent" horiz-adv-x="556" d="M275 65V467Q234 458 207 426T168 354T157 270Q157 199 186 140T275 65ZM275 536V623H316V534Q394 526 433 455L436 446V523H500V330H435Q433 386 402 426T316 470V61Q363 63 393 95T429 177H506Q502
98 449 49T316 -5V-97H275V-4Q199 3 146 53T77 181Q67 228 67 269Q67 371 123 450T275 536Z" />
<glyph unicode="&#xa3;" glyph-name="sterling" horiz-adv-x="556" d="M494 0H35V66H116V359H31V427H116V503Q116 611 166 669Q218 729 322 729Q400 729 452 683T503 559H414Q414 607 390 633T317 660Q251 660 222 607Q205 577 205 501V427H331V359H205V69H418V175H494V0Z"
/>
<glyph unicode="&#xa4;" glyph-name="currency" horiz-adv-x="560" d="M40 142L95 196Q45 257 45 339Q45 423 95 484L40 537L80 578L134 524Q198 574 279 574Q362 574 423 524L477 578L517 537L464 484Q513 422 513 339Q513 263 464 196L517 142L476 103L423 156Q359
105 281 105Q204 105 134 156L81 103L40 142ZM353 515T280 515T156 464T105 341T155 218T278 166T402 216T454 339Q454 412 404 463Z" />
<glyph unicode="&#xa5;" glyph-name="yen" horiz-adv-x="556" d="M430 0H121V66H232V221H-16V266H232V293L205 338H-16V383H177L11 653H-44V716H210V653H111L281 370L450 653H356V716H600V653H544L375 383H568V338H347L319 293V266H568V221H319V66H430V0Z" />
<glyph unicode="&#xa6;" glyph-name="brokenbar" horiz-adv-x="660" d="M294 0V295H356V0H294ZM294 436V731H356V436H294Z" />
<glyph unicode="&#xa7;" glyph-name="section" horiz-adv-x="556" d="M466 548H377Q377 607 350 633Q321 662 273 662Q228 662 199 640T170 574Q170 550 185 532T213 506T255 487Q261 484 264 483L338 451Q373 436 390 427T433 401T469 359T480 304Q480 259 457
224T392 177Q434 162 455 125T477 40Q477 5 460 -30T413 -84Q359 -119 281 -119Q183 -119 130 -77T79 62H169Q168 8 197 -23T280 -54Q324 -54 356 -28T388 42Q388 100 319 125Q237 155 197 172Q168 184 158 189T131 206T100 236Q74 266 74 320Q74 361 98 395T160
443Q82 487 82 575Q82 608 99 640T143 692Q193 727 267 727Q364 727 417 685T466 548ZM203 410Q163 385 163 336Q163 307 176 288Q179 283 188 276T198 267Q218 253 240 243T298 220T344 202Q346 203 349 205T355 209Q393 239 393 281Q393 314 376 333T324 369Q294
383 213 416Q212 416 208 414T203 410Z" />
<glyph unicode="&#xa8;" glyph-name="dieresis" horiz-adv-x="278" d="M86 705V619H-4V705H86ZM275 619H185V705H275V619Z" />
<glyph unicode="&#xa9;" glyph-name="copyright" horiz-adv-x="820" d="M407 -12Q256 -12 149 97T42 358Q42 511 149 619T411 727Q562 727 670 620T778 361Q778 204 671 96T407 -12ZM92 359Q92 226 185 132T411 39Q541 38 634 131T728 356Q728 490 635 583T409
677Q279 677 186 584T92 359ZM551 283L611 264Q591 203 535 171T411 139Q317 139 260 199T202 355Q202 454 264 517T424 580Q488 580 543 549T611 460L543 444Q535 490 503 514T421 539Q348 539 308 486T268 358T307 233T419 183Q518 183 551 283Z" />
<glyph unicode="&#xaa;" glyph-name="ordfeminine" horiz-adv-x="334" d="M212 597L213 607L212 623Q210 656 196 670Q181 685 155 685Q118 685 100 662Q91 652 89 629H45Q48 691 105 710Q120 716 152 716Q199 716 228 692Q255 672 255 623V465H299V432H212V486Q200
456 180 444T124 432Q120 432 111 431T97 431Q65 437 49 464Q35 483 35 513Q35 556 65 576T141 598H171Q199 598 212 597ZM212 566Q199 568 173 568Q145 568 129 566T97 551T81 513Q81 465 129 465Q208 465 212 566ZM35 350V391H299V350H35Z" />
<glyph unicode="&#xab;" glyph-name="guillemotleft" horiz-adv-x="556" d="M371 59L289 276L371 489H445L363 276L444 59H371ZM268 489L185 276L268 59H194L111 276L194 489H268Z" />
<glyph unicode="&#xac;" glyph-name="logicalnot" horiz-adv-x="660" d="M524 155V402H76V463H584V155H524Z" />
<glyph unicode="&#xad;" glyph-name="uni00AD" horiz-adv-x="333" d="M49 240V313H285V240H49Z" />
<glyph unicode="&#xae;" glyph-name="registered" horiz-adv-x="820" d="M409 -12Q257 -12 150 97T42 359T150 619T412 727T672 619T780 357T671 96T409 -12ZM92 359Q92 225 186 131T414 37Q544 37 637 132T730 359Q730 491 636 584T409 677Q279 677 186 584T92
359ZM483 341L609 142H537L418 341H322V142H260V582H460Q531 582 565 562Q617 532 617 462Q617 402 581 373T483 341ZM322 389H437Q461 389 479 391T515 401T544 425T554 466Q554 537 445 537H322V389Z" />
<glyph unicode="&#xaf;" glyph-name="overscore" horiz-adv-x="278" d="M269 638H9V683H269V638Z" />
<glyph unicode="&#xb0;" glyph-name="degree" horiz-adv-x="400" d="M350 579Q350 517 306 473T200 429T94 473T50 579Q49 640 93 684T200 729T306 685T350 579ZM310 579Q310 624 278 656T199 689Q154 689 122 657T90 579Q90 533 122 501T200 469Q245 469 277
501T310 579Z" />
<glyph unicode="&#xb1;" glyph-name="plusminus" horiz-adv-x="660" d="M71 388H294V611H356V388H579V327H356V104H294V327H71V388ZM579 0H71V61H579V0Z" />
<glyph unicode="&#xb2;" glyph-name="twosuperior" horiz-adv-x="333" d="M311 292H23V360Q156 471 200 523T244 610T224 666T167 688Q128 688 107 662T86 599H27Q36 729 167 729Q227 729 265 701T304 621Q304 582 290 556T242 496Q206 459 129 386L73 333H260V402H311V292Z"
/>
<glyph unicode="&#xb3;" glyph-name="threesuperior" horiz-adv-x="333" d="M172 729Q203 729 224 722Q263 710 284 682T306 616Q306 572 281 545T209 511V509Q257 505 283 478T310 406Q310 348 270 316T166 284Q99 284 62 317T24 412H85Q86 376 106 351T163 326Q204
326 228 348T252 409Q252 452 219 473Q198 489 147 491V531Q192 530 220 550T248 611Q248 645 227 666T169 688Q134 688 114 670Q92 648 89 624V607H29Q30 664 69 696T172 729Z" />
<glyph unicode="&#xb4;" glyph-name="acute" horiz-adv-x="278" d="M127 600H76L188 738H265L127 600Z" />
<glyph unicode="&#xb5;" glyph-name="mu" horiz-adv-x="611" d="M419 0V100H417Q400 43 365 18T266 -7Q244 -7 194 14Q177 21 175 -4Q175 -14 183 -86Q187 -119 175 -140T143 -162Q99 -162 102 -82Q103 -64 111 -30T118 22Q117 34 114 59T109 95Q102 139 102 165V463H20V522H183V202Q183
171 186 149T199 102T230 66T284 53Q321 53 351 72T398 126Q419 169 419 252V463H331V522H500V63H583V0H419Z" />
<glyph unicode="&#xb6;" glyph-name="paragraph" horiz-adv-x="500" d="M241 716H489V654H401V-127H349V654H267V-127H214V359Q139 361 88 411T36 537Q36 619 97 672Q127 698 160 707T241 716Z" />
<glyph unicode="&#xb7;" glyph-name="middot" horiz-adv-x="278" d="M88 416H190V315H88V416Z" />
<glyph unicode="&#xb8;" glyph-name="cedilla" horiz-adv-x="278" d="M29 -188L44 -158Q89 -173 108 -173Q133 -173 153 -161T174 -126Q174 -107 162 -100Q149 -87 123 -87Q108 -87 80 -95L65 -82L125 0H163L117 -59Q141 -53 149 -53Q187 -53 212 -75Q218 -83
222 -89Q232 -100 232 -125Q232 -159 203 -184Q167 -207 119 -207Q87 -207 46 -195Q36 -189 29 -188Z" />
<glyph unicode="&#xb9;" glyph-name="onesuperior" horiz-adv-x="333" d="M54 592V647Q131 704 155 729H214V339H280V299H87V339H158V676L149 667Q108 624 54 592Z" />
<glyph unicode="&#xba;" glyph-name="ordmasculine" horiz-adv-x="334" d="M84 576Q84 525 103 499Q126 464 168 464Q188 464 207 475T236 505Q251 535 251 577Q251 623 232 654T168 686T99 647Q84 620 84 576ZM37 576Q37 641 72 677Q108 716 171 716T266 676T298
573Q298 512 264 472T168 431Q100 431 68 477Q37 519 37 576ZM37 391H298V350H37V391Z" />
<glyph unicode="&#xbb;" glyph-name="guillemotright" horiz-adv-x="556" d="M185 489L267 276L185 59H111L193 276L112 489H185ZM370 276L290 489H364L444 276L358 59H284L370 276Z" />
<glyph unicode="&#xbc;" glyph-name="onequarter" horiz-adv-x="834" d="M691 115H493V172L675 430H744V154H809V115H744V40H803V0H620V40H691V115ZM256 0H198L639 729H697L256 0ZM534 154H691V381L534 154ZM25 592V647Q102 704 126 729H185V339H251V299H58V339H129V676L120
667Q79 624 25 592Z" />
<glyph unicode="&#xbd;" glyph-name="onehalf" horiz-adv-x="834" d="M226 0H168L609 729H667L226 0ZM25 592V647Q102 704 126 729H185V339H251V299H58V339H129V676L120 667Q79 624 25 592ZM809 0H521V68Q654 179 698 231T742 318T722 374T665 396Q626 396 605
370T584 307H525Q534 437 665 437Q725 437 763 409T802 329Q802 290 788 264T740 204Q704 167 627 94L571 41H758V110H809V0Z" />
<glyph unicode="&#xbe;" glyph-name="threequarters" horiz-adv-x="834" d="M256 0H198L639 729H697L256 0ZM691 115H493V172L675 430H744V154H809V115H744V40H803V0H620V40H691V115ZM534 154H691V381L534 154ZM173 729Q204 729 225 722Q264 710 285 682T307 616Q307
572 282 545T210 511V509Q258 505 284 478T311 406Q311 348 271 316T167 284Q100 284 63 317T25 412H86Q87 376 107 351T164 326Q205 326 229 348T253 409Q253 452 220 473Q199 489 148 491V531Q193 530 221 550T249 611Q249 645 228 666T170 688Q134 688 115 670Q93
648 90 624V607H30Q31 664 70 696T173 729Z" />
<glyph unicode="&#xbf;" glyph-name="questiondown" horiz-adv-x="500" d="M230 375H318Q318 302 303 257T238 170L192 128Q160 96 149 73T137 7Q137 -48 168 -79T256 -110Q306 -110 336 -73T366 14H456Q451 -76 400 -125T257 -175Q155 -175 102 -127Q45 -74 45
10Q45 67 73 110T154 199Q203 242 217 275T230 375ZM322 447H228V538H322V447Z" />
<glyph unicode="&#xc0;" glyph-name="Agrave" horiz-adv-x="778" d="M263 304H503L384 638L263 304ZM84 66L337 716H439L688 66H760V0H494V66H593L531 238H235L174 66H272V0H10V66H84ZM400 794L263 932H340L451 794H400Z" />
<glyph unicode="&#xc1;" glyph-name="Aacute" horiz-adv-x="778" d="M263 304H503L384 638L263 304ZM84 66L337 716H439L688 66H760V0H494V66H593L531 238H235L174 66H272V0H10V66H84ZM377 794H326L438 932H515L377 794Z" />
<glyph unicode="&#xc2;" glyph-name="Acircumflex" horiz-adv-x="778" d="M263 304H503L384 638L263 304ZM84 66L337 716H439L688 66H760V0H494V66H593L531 238H235L174 66H272V0H10V66H84ZM389 895L307 794H243L355 932H422L536 794H471L389 895Z" />
<glyph unicode="&#xc3;" glyph-name="Atilde" horiz-adv-x="778" d="M263 304H503L384 638L263 304ZM84 66L337 716H439L688 66H760V0H494V66H593L531 238H235L174 66H272V0H10V66H84ZM270 805H234Q239 846 262 874T322 902Q348 902 397 880T464 857Q470 857 480
861T493 870Q504 882 508 907H546Q543 868 522 839T464 810Q436 810 386 834T304 853Q281 842 270 805Z" />
<glyph unicode="&#xc4;" glyph-name="Adieresis" horiz-adv-x="778" d="M263 304H503L384 638L263 304ZM84 66L337 716H439L688 66H760V0H494V66H593L531 238H235L174 66H272V0H10V66H84ZM336 889V803H246V889H336ZM525 803H435V889H525V803Z" />
<glyph unicode="&#xc5;" glyph-name="Aring" horiz-adv-x="778" d="M263 304H503L384 638L263 304ZM84 66L337 716H439L688 66H760V0H494V66H593L531 238H235L174 66H272V0H10V66H84ZM430 761T389 761T319 790T289 861Q289 901 319 930T389 960T458 931T488 861Q488
820 459 791ZM416 927T389 927T343 908T323 861T343 815T389 795T435 815T455 861T436 907Z" />
<glyph unicode="&#xc6;" glyph-name="AE" horiz-adv-x="1000" d="M409 716H941V509H863V649H551L584 404H718V509H791V233H718V338H594L631 66H874V219H951V0H443V66H545L523 237H233L141 66H243V0H14V66H51L409 716ZM514 302L467 664H460L271 302H514Z" />
<glyph unicode="&#xc7;" glyph-name="Ccedilla" horiz-adv-x="722" d="M660 462H582Q577 552 528 604T390 657Q327 657 281 634T208 569T169 477T156 366Q156 318 162 276T185 193T226 124T291 78T384 60Q467 60 516 109T571 241H663Q659 121 582 54T383 -12H376L339
-59Q363 -53 371 -53Q409 -53 434 -75Q440 -83 444 -89Q454 -100 454 -125Q454 -159 425 -184Q389 -207 341 -207Q309 -207 268 -195Q258 -189 251 -188L266 -158Q311 -173 330 -173Q355 -173 375 -161T396 -126Q396 -107 384 -100Q371 -87 345 -87Q330 -87 302
-95L287 -82L340 -10Q209 3 135 97Q97 145 78 216T59 358Q59 516 133 612Q222 727 380 727Q537 727 588 612V716H660V462Z" />
<glyph unicode="&#xc8;" glyph-name="Egrave" horiz-adv-x="667" d="M601 0H29V66H131V650H29V716H601V502H523V650H218V397H366V506H438V224H366V331H218V66H523V223H601V0ZM345 794L208 932H285L396 794H345Z" />
<glyph unicode="&#xc9;" glyph-name="Eacute" horiz-adv-x="667" d="M601 0H29V66H131V650H29V716H601V502H523V650H218V397H366V506H438V224H366V331H218V66H523V223H601V0ZM322 794H271L383 932H460L322 794Z" />
<glyph unicode="&#xca;" glyph-name="Ecircumflex" horiz-adv-x="667" d="M601 0H29V66H131V650H29V716H601V502H523V650H218V397H366V506H438V224H366V331H218V66H523V223H601V0ZM334 895L252 794H188L300 932H367L481 794H416L334 895Z" />
<glyph unicode="&#xcb;" glyph-name="Edieresis" horiz-adv-x="667" d="M601 0H29V66H131V650H29V716H601V502H523V650H218V397H366V506H438V224H366V331H218V66H523V223H601V0ZM281 889V803H191V889H281ZM470 803H380V889H470V803Z" />
<glyph unicode="&#xcc;" glyph-name="Igrave" horiz-adv-x="333" d="M23 650V716H311V650H210V66H311V0H23V66H123V650H23ZM178 794L41 932H118L229 794H178Z" />
<glyph unicode="&#xcd;" glyph-name="Iacute" horiz-adv-x="333" d="M23 650V716H311V650H210V66H311V0H23V66H123V650H23ZM155 794H104L216 932H293L155 794Z" />
<glyph unicode="&#xce;" glyph-name="Icircumflex" horiz-adv-x="333" d="M23 650V716H311V650H210V66H311V0H23V66H123V650H23ZM167 895L85 794H21L133 932H200L314 794H249L167 895Z" />
<glyph unicode="&#xcf;" glyph-name="Idieresis" horiz-adv-x="333" d="M23 650V716H311V650H210V66H311V0H23V66H123V650H23ZM114 889V803H24V889H114ZM303 803H213V889H303V803Z" />
<glyph unicode="&#xd0;" glyph-name="Eth" horiz-adv-x="722" d="M213 650V415H356V365H213V66H289Q363 66 414 80T508 137Q544 174 562 231T580 347Q580 416 563 474T502 581T391 642Q349 650 311 650H213ZM126 415V650H25V716H303Q382 716 424 708Q551 684 614
580Q670 487 670 363Q670 214 605 122Q566 68 516 41T394 4Q360 0 281 0H25V66H126V365H25V415H126Z" />
<glyph unicode="&#xd1;" glyph-name="Ntilde" horiz-adv-x="778" d="M309 0H29V66H130V650H29V716H259L575 93V650H475V716H751V650H653V0H532L206 641V66H309V0ZM270 805H234Q239 846 262 874T322 902Q348 902 397 880T464 857Q470 857 480 861T493 870Q504 882
508 907H546Q543 868 522 839T464 810Q436 810 386 834T304 853Q281 842 270 805Z" />
<glyph unicode="&#xd2;" glyph-name="Ograve" horiz-adv-x="778" d="M396 -12Q237 -12 147 88T57 348Q57 518 141 620Q228 727 393 727Q554 727 644 616Q721 522 721 353Q721 276 701 212Q675 135 641 92Q556 -12 396 -12ZM390 662Q327 662 280 636T206 566T166
470T153 359Q153 217 205 148Q274 53 395 53Q512 53 578 154Q627 232 627 357Q627 416 615 468T576 565T502 636T390 662ZM400 794L263 932H340L451 794H400Z" />
<glyph unicode="&#xd3;" glyph-name="Oacute" horiz-adv-x="778" d="M396 -12Q237 -12 147 88T57 348Q57 518 141 620Q228 727 393 727Q554 727 644 616Q721 522 721 353Q721 276 701 212Q675 135 641 92Q556 -12 396 -12ZM390 662Q327 662 280 636T206 566T166
470T153 359Q153 217 205 148Q274 53 395 53Q512 53 578 154Q627 232 627 357Q627 416 615 468T576 565T502 636T390 662ZM377 794H326L438 932H515L377 794Z" />
<glyph unicode="&#xd4;" glyph-name="Ocircumflex" horiz-adv-x="778" d="M396 -12Q237 -12 147 88T57 348Q57 518 141 620Q228 727 393 727Q554 727 644 616Q721 522 721 353Q721 276 701 212Q675 135 641 92Q556 -12 396 -12ZM390 662Q327 662 280 636T206 566T166
470T153 359Q153 217 205 148Q274 53 395 53Q512 53 578 154Q627 232 627 357Q627 416 615 468T576 565T502 636T390 662ZM389 895L307 794H243L355 932H422L536 794H471L389 895Z" />
<glyph unicode="&#xd5;" glyph-name="Otilde" horiz-adv-x="778" d="M396 -12Q237 -12 147 88T57 348Q57 518 141 620Q228 727 393 727Q554 727 644 616Q721 522 721 353Q721 276 701 212Q675 135 641 92Q556 -12 396 -12ZM390 662Q327 662 280 636T206 566T166
470T153 359Q153 217 205 148Q274 53 395 53Q512 53 578 154Q627 232 627 357Q627 416 615 468T576 565T502 636T390 662ZM270 805H234Q239 846 262 874T322 902Q348 902 397 880T464 857Q470 857 480 861T493 870Q504 882 508 907H546Q543 868 522 839T464 810Q436
810 386 834T304 853Q281 842 270 805Z" />
<glyph unicode="&#xd6;" glyph-name="Odieresis" horiz-adv-x="778" d="M396 -12Q237 -12 147 88T57 348Q57 518 141 620Q228 727 393 727Q554 727 644 616Q721 522 721 353Q721 276 701 212Q675 135 641 92Q556 -12 396 -12ZM390 662Q327 662 280 636T206 566T166
470T153 359Q153 217 205 148Q274 53 395 53Q512 53 578 154Q627 232 627 357Q627 416 615 468T576 565T502 636T390 662ZM336 889V803H246V889H336ZM525 803H435V889H525V803Z" />
<glyph unicode="&#xd7;" glyph-name="multiply" horiz-adv-x="660" d="M71 147L287 357L71 567L115 611L330 401L546 611L589 567L373 358L589 148L545 104L330 314L114 104L71 147Z" />
<glyph unicode="&#xd8;" glyph-name="Oslash" horiz-adv-x="778" d="M584 556L229 120Q293 53 395 53Q514 53 577 154Q627 236 627 363Q627 484 584 556ZM72 3L145 92Q57 189 57 348Q57 516 138 616Q180 669 246 698T384 727Q519 727 603 654L672 739L708 708L642
622Q688 564 704 500T721 353Q721 273 700 206Q689 168 676 144T636 92Q539 -12 392 -12Q264 -12 179 59L108 -28L72 3ZM198 157L555 595Q489 662 388 662Q326 662 279 636T206 566T166 469T153 359Q153 228 198 157Z" />
<glyph unicode="&#xd9;" glyph-name="Ugrave" horiz-adv-x="722" d="M14 716H297V650H190V276Q190 169 229 118Q273 60 362 60Q408 60 448 81T510 141Q524 166 530 196T538 246T539 304V650H434V716H705V650H616V283Q616 182 593 131Q578 100 550 68T493 21Q431
-11 357 -11Q299 -11 245 11T156 77Q121 118 112 163T102 277V650H14V716ZM372 794L235 932H312L423 794H372Z" />
<glyph unicode="&#xda;" glyph-name="Uacute" horiz-adv-x="722" d="M14 716H297V650H190V276Q190 169 229 118Q273 60 362 60Q408 60 448 81T510 141Q524 166 530 196T538 246T539 304V650H434V716H705V650H616V283Q616 182 593 131Q578 100 550 68T493 21Q431
-11 357 -11Q299 -11 245 11T156 77Q121 118 112 163T102 277V650H14V716ZM349 794H298L410 932H487L349 794Z" />
<glyph unicode="&#xdb;" glyph-name="Ucircumflex" horiz-adv-x="722" d="M14 716H297V650H190V276Q190 169 229 118Q273 60 362 60Q408 60 448 81T510 141Q524 166 530 196T538 246T539 304V650H434V716H705V650H616V283Q616 182 593 131Q578 100 550 68T493
21Q431 -11 357 -11Q299 -11 245 11T156 77Q121 118 112 163T102 277V650H14V716ZM361 895L279 794H215L327 932H394L508 794H443L361 895Z" />
<glyph unicode="&#xdc;" glyph-name="Udieresis" horiz-adv-x="722" d="M14 716H297V650H190V276Q190 169 229 118Q273 60 362 60Q408 60 448 81T510 141Q524 166 530 196T538 246T539 304V650H434V716H705V650H616V283Q616 182 593 131Q578 100 550 68T493 21Q431
-11 357 -11Q299 -11 245 11T156 77Q121 118 112 163T102 277V650H14V716ZM308 889V803H218V889H308ZM497 803H407V889H497V803Z" />
<glyph unicode="&#xdd;" glyph-name="Yacute" horiz-adv-x="667" d="M486 0H177V66H288V293L67 650H12V716H266V650H167L337 370L506 650H412V716H656V650H600L375 293V66H486V0ZM322 794H271L383 932H460L322 794Z" />
<glyph unicode="&#xde;" glyph-name="Thorn" horiz-adv-x="611" d="M218 512V222H326Q355 222 371 223T409 232T448 256Q486 293 486 365Q486 451 438 484Q421 497 398 503T360 511T316 512H218ZM320 0H29V66H131V650H29V716H320V650H218V578H344Q404 578 438
570Q507 553 541 498T575 366Q575 260 504 197Q481 177 448 167T398 157T334 156H218V66H320V0Z" />
<glyph unicode="&#xdf;" glyph-name="germandbls" horiz-adv-x="556" d="M229 0H14V63H98V516Q98 556 100 578T114 631T150 681Q209 730 307 730Q392 730 445 693T498 573Q498 503 459 461T351 410Q432 403 476 349T521 212Q521 165 505 119T458 44Q408 -2 292
0V63Q364 58 399 98T434 211Q434 288 398 330T286 368V442Q341 442 376 476T412 565Q412 616 383 642T303 668Q273 668 244 655T200 618Q195 610 192 603T187 586T184 571T182 554T181 539T181 521T181 504V63H229V0Z" />
<glyph unicode="&#xe0;" glyph-name="agrave" horiz-adv-x="556" d="M383 0V103Q357 45 317 19T212 -7Q152 -7 108 20T50 103Q45 124 45 152Q45 234 101 274T244 314Q254 314 273 314T301 315H383V363Q380 394 374 412T348 450Q320 478 271 478Q234 478 211 470T167
436Q151 417 147 374H63Q69 491 176 527Q208 538 265 538Q351 538 408 493Q458 454 458 363V63H541V0H383ZM131 150Q131 106 155 79T222 52Q305 52 342 109T383 253Q358 257 303 257Q273 257 254 256T209 249T168 233T142 201T131 150ZM289 600L152 738H229L340
600H289Z" />
<glyph unicode="&#xe1;" glyph-name="aacute" horiz-adv-x="556" d="M383 0V103Q357 45 317 19T212 -7Q152 -7 108 20T50 103Q45 124 45 152Q45 234 101 274T244 314Q254 314 273 314T301 315H383V363Q380 394 374 412T348 450Q320 478 271 478Q234 478 211 470T167
436Q151 417 147 374H63Q69 491 176 527Q208 538 265 538Q351 538 408 493Q458 454 458 363V63H541V0H383ZM131 150Q131 106 155 79T222 52Q305 52 342 109T383 253Q358 257 303 257Q273 257 254 256T209 249T168 233T142 201T131 150ZM266 600H215L327 738H404L266
600Z" />
<glyph unicode="&#xe2;" glyph-name="acircumflex" horiz-adv-x="556" d="M383 0V103Q357 45 317 19T212 -7Q152 -7 108 20T50 103Q45 124 45 152Q45 234 101 274T244 314Q254 314 273 314T301 315H383V363Q380 394 374 412T348 450Q320 478 271 478Q234 478 211
470T167 436Q151 417 147 374H63Q69 491 176 527Q208 538 265 538Q351 538 408 493Q458 454 458 363V63H541V0H383ZM131 150Q131 106 155 79T222 52Q305 52 342 109T383 253Q358 257 303 257Q273 257 254 256T209 249T168 233T142 201T131 150ZM278 701L196 600H132L244
738H311L425 600H360L278 701Z" />
<glyph unicode="&#xe3;" glyph-name="atilde" horiz-adv-x="556" d="M383 0V103Q357 45 317 19T212 -7Q152 -7 108 20T50 103Q45 124 45 152Q45 234 101 274T244 314Q254 314 273 314T301 315H383V363Q380 394 374 412T348 450Q320 478 271 478Q234 478 211 470T167
436Q151 417 147 374H63Q69 491 176 527Q208 538 265 538Q351 538 408 493Q458 454 458 363V63H541V0H383ZM131 150Q131 106 155 79T222 52Q305 52 342 109T383 253Q358 257 303 257Q273 257 254 256T209 249T168 233T142 201T131 150ZM159 611H123Q128 652 151
680T211 708Q237 708 286 686T353 663Q359 663 369 667T382 676Q393 688 397 713H435Q432 674 411 645T353 616Q325 616 275 640T193 659Q170 648 159 611Z" />
<glyph unicode="&#xe4;" glyph-name="adieresis" horiz-adv-x="556" d="M383 0V103Q357 45 317 19T212 -7Q152 -7 108 20T50 103Q45 124 45 152Q45 234 101 274T244 314Q254 314 273 314T301 315H383V363Q380 394 374 412T348 450Q320 478 271 478Q234 478 211
470T167 436Q151 417 147 374H63Q69 491 176 527Q208 538 265 538Q351 538 408 493Q458 454 458 363V63H541V0H383ZM131 150Q131 106 155 79T222 52Q305 52 342 109T383 253Q358 257 303 257Q273 257 254 256T209 249T168 233T142 201T131 150ZM225 705V619H135V705H225ZM414
619H324V705H414V619Z" />
<glyph unicode="&#xe5;" glyph-name="aring" horiz-adv-x="556" d="M383 0V103Q357 45 317 19T212 -7Q152 -7 108 20T50 103Q45 124 45 152Q45 234 101 274T244 314Q254 314 273 314T301 315H383V363Q380 394 374 412T348 450Q320 478 271 478Q234 478 211 470T167
436Q151 417 147 374H63Q69 491 176 527Q208 538 265 538Q351 538 408 493Q458 454 458 363V63H541V0H383ZM131 150Q131 106 155 79T222 52Q305 52 342 109T383 253Q358 257 303 257Q273 257 254 256T209 249T168 233T142 201T131 150ZM278 583Q238 583 208 612T178
683Q178 723 208 752T278 782T347 753T377 683Q377 642 348 613T278 583ZM305 749T278 749T232 730T212 683T232 637T278 617T324 637T344 683T325 729Z" />
<glyph unicode="&#xe6;" glyph-name="ae" horiz-adv-x="833" d="M305 300H378V332Q378 337 378 352T379 375T377 395T373 418T363 437Q336 478 280 478Q227 478 199 449T168 367H84Q84 449 143 498Q192 538 275 538Q411 538 434 444Q469 538 587 538Q681 538 723
486T776 335Q777 325 777 243H453Q450 195 461 154T505 82T588 52Q634 52 665 87T699 169H771Q766 88 715 41T581 -7Q580 -7 521 0Q488 5 448 44T404 117Q362 -7 231 -7Q153 -7 109 34T65 152Q65 198 87 233T153 283Q198 300 305 300ZM453 300H699Q707 476 580
476Q535 476 505 448T464 382T453 300ZM378 243H347Q342 243 318 243T284 244T253 242T220 237T194 226T170 208T156 183T150 148Q150 106 176 79T244 52Q313 52 345 109T378 243Z" />
<glyph unicode="&#xe7;" glyph-name="ccedilla" horiz-adv-x="500" d="M472 330H409Q409 387 373 429T281 472Q203 472 165 412T126 270Q126 186 163 125Q204 58 280 58Q329 58 363 92T402 177H478Q477 93 417 43T272 -7H269L228 -59Q252 -53 260 -53Q298 -53
323 -75Q329 -83 333 -89Q343 -100 343 -125Q343 -159 314 -184Q278 -207 230 -207Q198 -207 157 -195Q147 -189 140 -188L155 -158Q200 -173 219 -173Q244 -173 264 -161T285 -126Q285 -107 273 -100Q260 -87 234 -87Q219 -87 191 -95L176 -82L233 -4Q141 10 89
82T37 256Q37 376 97 457Q125 494 168 516T260 538Q359 538 409 457V522H472V330Z" />
<glyph unicode="&#xe8;" glyph-name="egrave" horiz-adv-x="556" d="M520 259V245H135Q140 153 181 105Q206 75 233 65T305 54Q353 54 392 85T436 163H513Q499 81 439 37T291 -7Q169 -7 110 65T51 262Q51 358 90 426Q119 478 174 508T293 538Q378 538 435 492Q493
444 509 363Q520 311 520 259ZM139 305H434Q433 374 396 426T291 478Q223 478 184 427T139 305ZM289 600L152 738H229L340 600H289Z" />
<glyph unicode="&#xe9;" glyph-name="eacute" horiz-adv-x="556" d="M520 259V245H135Q140 153 181 105Q206 75 233 65T305 54Q353 54 392 85T436 163H513Q499 81 439 37T291 -7Q169 -7 110 65T51 262Q51 358 90 426Q119 478 174 508T293 538Q378 538 435 492Q493
444 509 363Q520 311 520 259ZM139 305H434Q433 374 396 426T291 478Q223 478 184 427T139 305ZM266 600H215L327 738H404L266 600Z" />
<glyph unicode="&#xea;" glyph-name="ecircumflex" horiz-adv-x="556" d="M520 259V245H135Q140 153 181 105Q206 75 233 65T305 54Q353 54 392 85T436 163H513Q499 81 439 37T291 -7Q169 -7 110 65T51 262Q51 358 90 426Q119 478 174 508T293 538Q378 538 435
492Q493 444 509 363Q520 311 520 259ZM139 305H434Q433 374 396 426T291 478Q223 478 184 427T139 305ZM278 701L196 600H132L244 738H311L425 600H360L278 701Z" />
<glyph unicode="&#xeb;" glyph-name="edieresis" horiz-adv-x="556" d="M520 259V245H135Q140 153 181 105Q206 75 233 65T305 54Q353 54 392 85T436 163H513Q499 81 439 37T291 -7Q169 -7 110 65T51 262Q51 358 90 426Q119 478 174 508T293 538Q378 538 435 492Q493
444 509 363Q520 311 520 259ZM139 305H434Q433 374 396 426T291 478Q223 478 184 427T139 305ZM225 705V619H135V705H225ZM414 619H324V705H414V619Z" />
<glyph unicode="&#xec;" glyph-name="igrave" horiz-adv-x="296" d="M272 0H31V63H114V463H31V522H195V63H272V0ZM159 600L22 738H99L210 600H159Z" />
<glyph unicode="&#xed;" glyph-name="iacute" horiz-adv-x="296" d="M272 0H31V63H114V463H31V522H195V63H272V0ZM136 600H85L197 738H274L136 600Z" />
<glyph unicode="&#xee;" glyph-name="icircumflex" horiz-adv-x="296" d="M272 0H31V63H114V463H31V522H195V63H272V0ZM148 701L66 600H2L114 738H181L295 600H230L148 701Z" />
<glyph unicode="&#xef;" glyph-name="idieresis" horiz-adv-x="296" d="M272 0H31V63H114V463H31V522H195V63H272V0ZM95 705V619H5V705H95ZM284 619H194V705H284V619Z" />
<glyph unicode="&#xf0;" glyph-name="eth" horiz-adv-x="556" d="M202 53T278 53T393 114T433 253Q433 335 394 394T278 454Q202 454 163 393T123 253T162 114ZM169 549L138 581L238 641Q171 676 108 684V748Q222 732 306 682L418 748L449 716L346 655Q434 588
477 486T521 268Q521 144 459 69T278 -7Q162 -7 99 70T35 264Q37 374 102 444T270 514Q345 514 398 464L400 466Q370 555 280 615L169 549Z" />
<glyph unicode="&#xf1;" glyph-name="ntilde" horiz-adv-x="611" d="M193 522V428Q213 485 251 511T351 538Q473 538 509 428Q513 405 513 361V63H595V0H350V63H432V333Q432 475 329 475Q286 475 258 457Q232 440 214 406Q193 365 193 272V63H275V0H25V63H112V463H27V522H193ZM187
611H151Q156 652 179 680T239 708Q265 708 314 686T381 663Q387 663 397 667T410 676Q421 688 425 713H463Q460 674 439 645T381 616Q353 616 303 640T221 659Q198 648 187 611Z" />
<glyph unicode="&#xf2;" glyph-name="ograve" horiz-adv-x="556" d="M123 267Q123 169 159 121Q206 54 280 54Q317 54 352 76T405 133Q434 187 434 270Q434 356 398 416T280 476Q199 476 152 402Q123 352 123 267ZM37 268Q37 390 102 462Q171 538 285 538Q402
538 462 461T522 264Q522 148 459 71T281 -7Q156 -7 94 81Q37 162 37 268ZM289 600L152 738H229L340 600H289Z" />
<glyph unicode="&#xf3;" glyph-name="oacute" horiz-adv-x="556" d="M123 267Q123 169 159 121Q206 54 280 54Q317 54 352 76T405 133Q434 187 434 270Q434 356 398 416T280 476Q199 476 152 402Q123 352 123 267ZM37 268Q37 390 102 462Q171 538 285 538Q402
538 462 461T522 264Q522 148 459 71T281 -7Q156 -7 94 81Q37 162 37 268ZM266 600H215L327 738H404L266 600Z" />
<glyph unicode="&#xf4;" glyph-name="ocircumflex" horiz-adv-x="556" d="M123 267Q123 169 159 121Q206 54 280 54Q317 54 352 76T405 133Q434 187 434 270Q434 356 398 416T280 476Q199 476 152 402Q123 352 123 267ZM37 268Q37 390 102 462Q171 538 285 538Q402
538 462 461T522 264Q522 148 459 71T281 -7Q156 -7 94 81Q37 162 37 268ZM278 701L196 600H132L244 738H311L425 600H360L278 701Z" />
<glyph unicode="&#xf5;" glyph-name="otilde" horiz-adv-x="556" d="M123 267Q123 169 159 121Q206 54 280 54Q317 54 352 76T405 133Q434 187 434 270Q434 356 398 416T280 476Q199 476 152 402Q123 352 123 267ZM37 268Q37 390 102 462Q171 538 285 538Q402
538 462 461T522 264Q522 148 459 71T281 -7Q156 -7 94 81Q37 162 37 268ZM159 611H123Q128 652 151 680T211 708Q237 708 286 686T353 663Q359 663 369 667T382 676Q393 688 397 713H435Q432 674 411 645T353 616Q325 616 275 640T193 659Q170 648 159 611Z" />
<glyph unicode="&#xf6;" glyph-name="odieresis" horiz-adv-x="556" d="M123 267Q123 169 159 121Q206 54 280 54Q317 54 352 76T405 133Q434 187 434 270Q434 356 398 416T280 476Q199 476 152 402Q123 352 123 267ZM37 268Q37 390 102 462Q171 538 285 538Q402
538 462 461T522 264Q522 148 459 71T281 -7Q156 -7 94 81Q37 162 37 268ZM225 705V619H135V705H225ZM414 619H324V705H414V619Z" />
<glyph unicode="&#xf7;" glyph-name="divide" horiz-adv-x="660" d="M71 388H579V327H71V388ZM274 104V205H376V104H274ZM274 510V611H376V510H274Z" />
<glyph unicode="&#xf8;" glyph-name="oslash" horiz-adv-x="556" d="M151 135L383 434Q344 476 280 476Q199 476 152 402Q123 352 123 267T151 135ZM79 -21L50 4L102 71Q100 73 94 81Q37 162 37 268Q37 390 102 462Q171 538 285 538Q371 538 428 494L475 554L510
527L460 463Q522 388 522 264Q522 148 459 71T281 -7Q183 -7 129 42L79 -21ZM408 397L176 102Q218 54 280 54Q317 54 352 76T405 133Q434 187 434 270Q434 348 408 397Z" />
<glyph unicode="&#xf9;" glyph-name="ugrave" horiz-adv-x="611" d="M419 0V100Q400 43 365 18T266 -7Q207 -7 165 19T109 100Q102 128 102 202V463H20V522H183V202Q183 171 186 149T199 102T230 66T284 53Q321 53 351 72T398 126Q419 169 419 252V463H331V522H500V63H583V0H419ZM317
600L180 738H257L368 600H317Z" />
<glyph unicode="&#xfa;" glyph-name="uacute" horiz-adv-x="611" d="M419 0V100Q400 43 365 18T266 -7Q207 -7 165 19T109 100Q102 128 102 202V463H20V522H183V202Q183 171 186 149T199 102T230 66T284 53Q321 53 351 72T398 126Q419 169 419 252V463H331V522H500V63H583V0H419ZM294
600H243L355 738H432L294 600Z" />
<glyph unicode="&#xfb;" glyph-name="ucircumflex" horiz-adv-x="611" d="M419 0V100Q400 43 365 18T266 -7Q207 -7 165 19T109 100Q102 128 102 202V463H20V522H183V202Q183 171 186 149T199 102T230 66T284 53Q321 53 351 72T398 126Q419 169 419 252V463H331V522H500V63H583V0H419ZM306
701L224 600H160L272 738H339L453 600H388L306 701Z" />
<glyph unicode="&#xfc;" glyph-name="udieresis" horiz-adv-x="611" d="M419 0V100Q400 43 365 18T266 -7Q207 -7 165 19T109 100Q102 128 102 202V463H20V522H183V202Q183 171 186 149T199 102T230 66T284 53Q321 53 351 72T398 126Q419 169 419 252V463H331V522H500V63H583V0H419ZM253
705V619H163V705H253ZM442 619H352V705H442V619Z" />
<glyph unicode="&#xfd;" glyph-name="yacute" horiz-adv-x="556" d="M17 522H240V463H159L287 97L411 463H329V522H543V463H497L325 -5Q307 -51 293 -82Q270 -134 239 -152Q204 -174 159 -174Q145 -174 96 -167V-101Q124 -108 156 -108Q175 -108 189 -99T215 -69T230
-37T242 -1L67 463H17V522ZM266 600H215L327 738H404L266 600Z" />
<glyph unicode="&#xfe;" glyph-name="thorn" horiz-adv-x="611" d="M104 -102V656H22V716H185V420H187Q215 481 257 509T366 538Q430 538 470 511T547 420Q575 371 575 267Q575 144 527 81Q460 -7 365 -7Q236 -7 187 97H185V-102H269V-162H20V-102H104ZM337 53Q390
53 426 85T477 161T492 258Q492 352 458 410Q441 442 411 460T344 478Q260 478 216 403Q185 352 185 267Q185 175 218 122Q261 53 337 53Z" />
<glyph unicode="&#xff;" glyph-name="ydieresis" horiz-adv-x="556" d="M17 522H240V463H159L287 97L411 463H329V522H543V463H497L325 -5Q307 -51 293 -82Q270 -134 239 -152Q204 -174 159 -174Q145 -174 96 -167V-101Q124 -108 156 -108Q175 -108 189 -99T215
-69T230 -37T242 -1L67 463H17V522ZM225 705V619H135V705H225ZM414 619H324V705H414V619Z" />
<glyph unicode="&#x131;" glyph-name="dotlessi" horiz-adv-x="296" d="M272 0H31V63H114V463H31V522H195V63H272V0Z" />
<glyph unicode="&#x141;" glyph-name="Lslash" horiz-adv-x="611" d="M572 0H29V66H132V336L29 282V346L132 400V650H29V716H339V650H219V460L322 514V450L219 396V72H491V234H572V0Z" />
<glyph unicode="&#x142;" glyph-name="lslash" horiz-adv-x="278" d="M265 0H21V63H104V386L21 342V390L104 434V657H21V716H185V471L265 515V467L185 423V63H265V0Z" />
<glyph unicode="&#x152;" glyph-name="OE" horiz-adv-x="1000" d="M935 0H504Q472 0 441 -3Q378 -6 377 -6Q360 -6 326 -4Q288 -2 255 11Q54 90 54 366Q54 465 86 545T190 676T363 727Q382 727 416 725Q431 724 459 722T501 719Q576 716 577 716H935V508H857V650H581V395H700V500H772V225H700V329H581V66H857V218H935V0ZM494
67V655Q432 663 399 663Q340 663 283 640T199 572Q148 487 148 360Q148 221 207 139Q265 59 396 59Q409 59 439 61Q468 63 494 67Z" />
<glyph unicode="&#x153;" glyph-name="oe" horiz-adv-x="833" d="M804 244H475Q475 159 501 116Q539 56 605 56Q656 56 687 89T721 175H796Q795 94 743 44T609 -7Q550 -7 506 19Q480 34 461 60T436 117Q423 57 372 25T256 -7Q149 -7 94 69T38 256Q38 380 89 453Q117
493 162 515T259 538Q407 538 439 416Q440 418 442 424T444 432Q490 538 616 538Q683 538 716 516Q754 490 778 446Q804 397 804 294V244ZM475 301H720Q731 475 608 475Q545 475 512 422T475 301ZM399 290Q399 427 326 462Q301 475 264 475Q183 475 147 397Q124
348 124 261T150 124Q167 94 196 75T258 56Q297 56 328 77T377 136Q399 183 399 290Z" />
<glyph unicode="&#x160;" glyph-name="Scaron" horiz-adv-x="556" d="M497 482H420Q418 569 383 615T266 662Q211 662 175 630T138 543Q138 495 174 462Q186 451 253 425L344 390Q372 380 380 377T408 364T441 346T467 322Q513 273 513 193Q513 137 488 91Q432
-12 294 -12Q235 -12 189 13T123 91V0H47V242H123Q125 159 165 108T286 56Q353 56 388 92Q422 129 422 184Q422 235 398 259T319 305L204 350Q123 382 85 419T46 532Q46 606 80 648Q116 692 157 709T259 727Q375 727 420 648V716H497V482ZM278 831L360 932H425L311
794H244L132 932H196L278 831Z" />
<glyph unicode="&#x161;" glyph-name="scaron" horiz-adv-x="500" d="M438 354H375Q372 400 357 427T302 468Q275 477 251 477Q203 477 172 454T140 384Q140 352 161 337Q168 332 176 329T191 323T208 318T224 314T242 311T259 308Q302 301 328 294T385 270T429
226T444 158Q444 104 430 83Q371 -7 273 -7Q212 -7 178 12T115 83V0H52V180H115Q125 111 163 83Q202 54 254 54Q299 54 329 79T360 149Q360 165 356 177T343 197T326 211T302 221T278 227T251 231T226 235Q188 241 162 249T110 273T72 316T59 381Q59 445 82 470Q144
538 241 538Q335 538 375 470V522H438V354ZM250 637L332 738H397L283 600H216L104 738H168L250 637Z" />
<glyph unicode="&#x178;" glyph-name="Ydieresis" horiz-adv-x="667" d="M486 0H177V66H288V293L67 650H12V716H266V650H167L337 370L506 650H412V716H656V650H600L375 293V66H486V0ZM281 889V803H191V889H281ZM470 803H380V889H470V803Z" />
<glyph unicode="&#x17d;" glyph-name="Zcaron" horiz-adv-x="611" d="M569 0H38V91L462 648H125V504H45V716H561V633L132 69H492V219H569V0ZM306 831L388 932H453L339 794H272L160 932H224L306 831Z" />
<glyph unicode="&#x17e;" glyph-name="zcaron" horiz-adv-x="500" d="M451 0H49V68L354 463H127V356H56V522H447V455L141 63H381V179H451V0ZM250 637L332 738H397L283 600H216L104 738H168L250 637Z" />
<glyph unicode="&#x192;" glyph-name="florin" horiz-adv-x="556" d="M236 412H131L141 471H248L263 562Q272 620 289 648Q338 729 441 729Q464 729 510 719L500 659Q494 659 480 661T458 664Q403 664 379 639T345 557L330 471H446L435 412H318L243 -1Q227 -90
188 -126Q139 -172 72 -172Q39 -172 -5 -161L5 -100Q11 -100 27 -103T52 -106Q105 -106 128 -78T162 8L236 412Z" />
<glyph unicode="&#x2c6;" glyph-name="circumflex" horiz-adv-x="278" d="M139 701L57 600H-7L105 738H172L286 600H221L139 701Z" />
<glyph unicode="&#x2c7;" glyph-name="caron" horiz-adv-x="278" d="M139 637L221 738H286L172 600H105L-7 738H57L139 637Z" />
<glyph unicode="&#x2c9;" glyph-name="uni02C9" horiz-adv-x="278" d="M269 638H9V683H269V638Z" />
<glyph unicode="&#x2d8;" glyph-name="breve" horiz-adv-x="278" d="M-4 731H35Q42 692 70 671T140 650Q226 650 247 731H284Q277 670 237 638T135 605Q76 605 38 639T-4 731Z" />
<glyph unicode="&#x2d9;" glyph-name="dotaccent" horiz-adv-x="278" d="M184 705V619H94V705H184Z" />
<glyph unicode="&#x2da;" glyph-name="ring" horiz-adv-x="278" d="M180 583T139 583T69 612T39 683Q39 723 69 752T139 782T208 753T238 683Q238 642 209 613ZM166 749T139 749T93 730T73 683T93 637T139 617T185 637T205 683T186 729Z" />
<glyph unicode="&#x2db;" glyph-name="ogonek" horiz-adv-x="278" d="M241 -130V-178Q213 -189 186 -189Q141 -189 113 -161T85 -88Q85 -40 125 0H172Q136 -27 136 -64Q136 -94 154 -117T201 -140Q215 -140 241 -130Z" />
<glyph unicode="&#x2dc;" glyph-name="tilde" horiz-adv-x="278" d="M20 611H-16Q-11 652 12 680T72 708Q98 708 147 686T214 663Q220 663 230 667T243 676Q254 688 258 713H296Q293 674 272 645T214 616Q186 616 136 640T54 659Q31 648 20 611Z" />
<glyph unicode="&#x2dd;" glyph-name="hungarumlaut" horiz-adv-x="278" d="M30 600H-21L91 738H168L30 600ZM162 600H111L223 738H300L162 600Z" />
<glyph unicode="&#x3a9;" glyph-name="uni03A9" horiz-adv-x="718" d="M197 65V68Q138 122 100 203T62 385Q62 534 147 629T362 725Q493 725 574 626T655 390Q655 287 615 203T518 68V65H668V0H427V48Q490 90 533 175T576 374Q575 444 552 507T479 615T361 659Q262
659 202 577T141 372Q141 264 185 176T290 48V0H48V65H197Z" />
<glyph unicode="&#x3bc;" glyph-name="uni03BC" horiz-adv-x="611" d="M419 0V100H417Q400 43 365 18T266 -7Q244 -7 194 14Q177 21 175 -4Q175 -14 183 -86Q187 -119 175 -140T143 -162Q99 -162 102 -82Q103 -64 111 -30T118 22Q117 34 114 59T109 95Q102 139
102 165V463H20V522H183V202Q183 171 186 149T199 102T230 66T284 53Q321 53 351 72T398 126Q419 169 419 252V463H331V522H500V63H583V0H419Z" />
<glyph unicode="&#x3c0;" glyph-name="pi" horiz-adv-x="573" d="M546 464H466V150Q466 51 481 0H405Q388 29 388 143V464H209Q205 355 184 212T136 0H60Q87 79 107 217T132 464Q55 464 21 451L9 504Q53 532 154 532H554L546 464Z" />
<glyph unicode="&#x2013;" glyph-name="endash" horiz-adv-x="556" d="M557 245H0V308H557V245Z" />
<glyph unicode="&#x2014;" glyph-name="emdash" horiz-adv-x="1000" d="M1000 245H0V308H1000V245Z" />
<glyph unicode="&#x2018;" glyph-name="quoteleft" horiz-adv-x="278" d="M193 474H88V574L135 716H193L147 574H193V474Z" />
<glyph unicode="&#x2019;" glyph-name="quoteright" horiz-adv-x="278" d="M83 616V716H188V616L142 474H83L130 616H83Z" />
<glyph unicode="&#x201a;" glyph-name="quotesinglbase" horiz-adv-x="278" d="M88 0V100H193V0L146 -141H88L135 0H88Z" />
<glyph unicode="&#x201c;" glyph-name="quotedblleft" horiz-adv-x="556" d="M233 573V474H128V573L175 716H233L186 573H233ZM424 573V474H319V573L366 716H424L377 573H424Z" />
<glyph unicode="&#x201d;" glyph-name="quotedblright" horiz-adv-x="556" d="M319 617V716H424V617L377 474H319L366 617H319ZM128 617V716H233V617L186 474H128L175 617H128Z" />
<glyph unicode="&#x201e;" glyph-name="quotedblbase" horiz-adv-x="556" d="M319 0V100H424V0L377 -141H319L366 0H319ZM128 0V100H233V0L186 -141H128L175 0H128Z" />
<glyph unicode="&#x2020;" glyph-name="dagger" horiz-adv-x="556" d="M237 450H68V514H237V716H317V514H486V450H317V0H237V450Z" />
<glyph unicode="&#x2021;" glyph-name="daggerdbl" horiz-adv-x="556" d="M316 178V0H237V178H65V241H237V480H65V543H237V716H316V543H487V480H316V241H487V178H316Z" />
<glyph unicode="&#x2022;" glyph-name="bullet" horiz-adv-x="600" d="M459 536V179H141V536H459Z" />
<glyph unicode="&#x2026;" glyph-name="ellipsis" horiz-adv-x="1000" d="M218 101V0H116V101H218ZM551 101V0H449V101H551ZM884 101V0H782V101H884Z" />
<glyph unicode="&#x2030;" glyph-name="perthousand" horiz-adv-x="1000" d="M493 291Q419 291 419 155Q419 109 436 75T494 41Q531 41 548 81T565 164Q565 291 493 291ZM154 -12H94L507 729H567L154 -12ZM168 677Q147 677 130 663T105 627Q94 595 94 538Q94 427
169 427Q188 427 203 439T225 472T236 511T240 549Q240 677 168 677ZM22 555Q22 627 60 678T169 729Q241 729 275 678T309 551Q309 476 272 424T163 372Q99 372 53 433Q22 473 22 555ZM347 92T347 170T390 297Q431 343 494 343Q567 343 600 293T634 165Q634 92
599 40T494 -12Q420 -12 384 40ZM679 170Q679 198 689 233Q722 343 826 343Q901 343 939 284Q966 243 966 165Q966 92 931 40T826 -12Q752 -12 716 40T679 170ZM825 291Q751 291 751 155Q751 109 768 75T826 41Q863 41 880 81T897 164Q897 291 825 291Z" />
<glyph unicode="&#x2039;" glyph-name="guilsinglleft" horiz-adv-x="278" d="M142 59L60 276L142 489H216L134 276L216 59H142Z" />
<glyph unicode="&#x203a;" glyph-name="guilsinglright" horiz-adv-x="278" d="M137 489L219 276L137 59H63L145 276L63 489H137Z" />
<glyph unicode="&#x2044;" glyph-name="fraction" horiz-adv-x="167" d="M-108 0H-166L275 729H333L-108 0Z" />
<glyph unicode="&#x20ac;" glyph-name="Euro" horiz-adv-x="556" d="M525 175Q512 80 458 34T318 -13Q198 -13 136 94Q95 164 84 271H4L21 323H80Q79 335 79 358Q79 388 80 403H4L21 455H85Q97 549 133 613Q198 728 310 728Q360 728 396 708T447 654V722H523V524H447L445
541Q438 599 404 631T313 664Q254 664 219 607T174 455H435L418 403H170Q170 397 170 386T169 368Q169 338 170 323H394L377 271H174Q182 175 217 115T316 55Q371 55 401 89T439 175H525Z" />
<glyph unicode="&#x2113;" glyph-name="afii61289" horiz-adv-x="488" d="M428 153L464 120Q398 -7 277 -7Q195 -7 154 46T110 181V195L53 147L29 193Q87 241 109 263V542Q109 670 154 728T265 787Q326 787 358 741T390 622Q390 452 184 248V213Q185 133 215 95T293
56Q372 56 428 153ZM184 547V326Q336 498 336 621Q336 728 265 728Q232 728 208 685T184 547Z" />
<glyph unicode="&#x2122;" glyph-name="trademark" horiz-adv-x="980" d="M846 716V309H783V659L642 309H604L466 659V309H402V716H506L622 429L744 716H846ZM330 716V659H201V309H130V659H0V716H330Z" />
<glyph unicode="&#x2126;" glyph-name="Omega" horiz-adv-x="718" d="M197 65V68Q138 122 100 203T62 385Q62 534 147 629T362 725Q493 725 574 626T655 390Q655 287 615 203T518 68V65H668V0H427V48Q490 90 533 175T576 374Q575 444 552 507T479 615T361 659Q262
659 202 577T141 372Q141 264 185 176T290 48V0H48V65H197Z" />
<glyph unicode="&#x212e;" glyph-name="estimated" horiz-adv-x="893" d="M858 348H191Q186 348 186 344V142Q186 130 195 119Q300 9 447 9Q524 9 593 42T712 132H771Q715 66 629 28T446 -11Q276 -11 156 97T35 358Q35 512 155 620T446 729Q617 729 737 621T858
358V348ZM707 374V577Q707 591 697 601Q589 707 447 707Q302 707 196 598Q186 588 186 573V374Q186 368 191 368H702Q707 368 707 374Z" />
<glyph unicode="&#x2202;" glyph-name="partialdiff" horiz-adv-x="549" d="M102 687L76 745Q146 802 243 802Q349 802 423 702T498 416Q498 227 430 110T236 -7Q144 -7 94 62T43 228Q43 345 105 417T256 490Q316 490 359 459T420 395H421Q422 406 422 438Q422
569 368 652T235 736Q162 736 102 687ZM243 58H244Q311 58 356 134T412 317Q398 357 360 391T269 426Q207 426 164 368T120 228Q120 153 153 106T243 58Z" />
<glyph unicode="&#x2206;" glyph-name="increment" horiz-adv-x="649" d="M31 0V53L281 733H371L617 54V0H31ZM111 64H533L390 451Q383 474 358 544T325 640H321Q315 618 292 553T261 467L111 64Z" />
<glyph unicode="&#x220f;" glyph-name="product" horiz-adv-x="702" d="M674 642H566V-99H489V642H212V-99H135V642H26V714H674V642Z" />
<glyph unicode="&#x2211;" glyph-name="summation" horiz-adv-x="555" d="M532 -99H23V-46L291 307L35 659V714H516V646H142V643L380 318L122 -21V-24H532V-99Z" />
<glyph unicode="&#x2212;" glyph-name="minus" horiz-adv-x="660" d="M584 327H76V388H584V327Z" />
<glyph unicode="&#x2215;" glyph-name="uni2215" horiz-adv-x="167" d="M-108 0H-166L275 729H333L-108 0Z" />
<glyph unicode="&#x2219;" glyph-name="uni2219" horiz-adv-x="278" d="M88 416H190V315H88V416Z" />
<glyph unicode="&#x221a;" glyph-name="radical" horiz-adv-x="575" d="M575 849L352 -152H284L124 321L50 293L34 340L173 395L300 18Q312 -32 317 -57H318Q318 -54 332 19L517 849H575Z" />
<glyph unicode="&#x221e;" glyph-name="infinity" horiz-adv-x="784" d="M732 297V296Q732 224 687 180T578 135Q532 135 490 163T393 254Q343 196 301 166T202 135Q140 135 96 180T51 292Q51 362 96 407T209 453Q261 453 304 422T396 333Q399 337 406 344Q431
371 445 385T482 417T531 444T585 453Q650 453 691 410T732 297ZM209 183H210Q222 183 234 186T255 193T276 206T296 220T315 237T332 254T349 273T365 291Q346 315 338 325T310 354T278 382T244 398T203 406Q157 406 130 373T103 291Q103 246 133 215T209 183ZM579
406H578Q555 406 529 392T490 366T450 326T422 295Q479 232 511 208T581 183Q626 183 653 216T681 292Q681 344 653 375T579 406Z" />
<glyph unicode="&#x222b;" glyph-name="integral'" horiz-adv-x="363" d="M345 859L332 804Q317 815 296 815Q263 815 245 790Q211 749 211 608Q211 529 218 354T225 95Q225 -45 182 -112Q150 -165 80 -165Q40 -165 14 -148L28 -91Q55 -103 73 -103Q102 -103 119
-80Q153 -36 153 95Q153 180 147 357T140 616Q140 701 152 751T194 833Q231 873 290 873Q323 873 345 859Z" />
<glyph unicode="&#x2248;" glyph-name="approxequal" horiz-adv-x="565" d="M486 440L518 412Q470 315 388 315Q360 315 336 324T271 358Q212 392 177 392Q146 392 124 373T78 317L45 344Q68 389 104 415T184 441Q201 441 219 436T247 427T275 412T296 400Q300
398 310 392T324 384T337 378T350 372T362 368T376 365T391 364Q420 364 442 382T486 440ZM486 267L518 239Q469 143 388 143Q360 143 337 152T271 185Q209 220 178 220Q146 220 124 201T78 144L45 171Q68 216 104 242T184 268Q201 268 219 263T247 254T275 240T296
228Q297 227 309 220T323 212T335 206T349 200T361 196T376 193T391 192Q420 192 441 210T486 267Z" />
<glyph unicode="&#x2260;" glyph-name="notequal" horiz-adv-x="565" d="M401 513L356 414H513V364H337L269 217H513V166H249L195 48L155 66L201 166H51V217H222L288 364H51V414H308L361 530L401 513Z" />
<glyph unicode="&#x2264;" glyph-name="lessequal" horiz-adv-x="565" d="M510 100L57 328V381L510 609V548L111 356V354L510 160V100ZM513 6H51V58H513V6Z" />
<glyph unicode="&#x2265;" glyph-name="greaterequal" horiz-adv-x="565" d="M58 609L511 381V328L58 100V160L457 353V355L58 548V609ZM512 6H52V58H512V6Z" />
<glyph unicode="&#x25ca;" glyph-name="lozenge" horiz-adv-x="575" d="M521 357L318 -46H254L55 357L257 759H321L521 357ZM449 355L308 638Q294 667 289 692H286Q275 657 266 638L126 358L268 73Q279 46 286 20H290Q297 50 307 72L449 355Z" />
<glyph unicode="&#xfb01;" glyph-name="fi" horiz-adv-x="593" d="M272 63V0H24V63H111V462H22V522H111Q111 560 112 580T124 630T155 680Q205 731 309 731Q392 731 439 701T492 594H398Q388 665 308 665Q240 665 211 624Q194 600 192 533V522H501V63H586V0H340V63H420V462H192V63H272Z"
/>
<glyph unicode="&#xfb02;" glyph-name="fl" horiz-adv-x="593" d="M419 63V655Q392 660 323 660Q251 660 222 629T193 522H303V462H192V63H272V0H24V63H111V462H22V522H111Q110 635 160 683T325 731Q419 731 472 719Q479 717 488 716Q497 714 498 713T500 703Q500
701 500 700V63H584V0H338V63H419Z" />
</font>
</defs>
</svg>
